<svg xmlns="http://www.w3.org/2000/svg" viewBox="0 0 512 512">
  <defs>
    <linearGradient id="g" x1="0" y1="0" x2="1" y2="1">
      <stop offset="0%" stop-color="#ffdce8"/>
      <stop offset="100%" stop-color="#e9ddff"/>
    </linearGradient>
  </defs>
  <rect width="512" height="512" rx="128" fill="url(#g)"/>
  <path d="M144 244c0-70 52-124 112-124s112 54 112 124c0 79-51 139-112 139s-112-60-112-139z" fill="#3a2430"/>
  <path d="M178 142l-41-64c-8-13-28-5-26 10l12 97z" fill="#3a2430"/>
  <path d="M334 142l41-64c8-13 28-5 26 10l-12 97z" fill="#3a2430"/>
  <circle cx="217" cy="242" r="18" fill="#fff7f8"/>
  <circle cx="295" cy="242" r="18" fill="#fff7f8"/>
  <path d="M247 287c6 8 12 12 9 12s3-4 9-12" stroke="#fff7f8" stroke-width="14" stroke-linecap="round" fill="none"/>
  <path d="M202 323c31 22 77 22 108 0" stroke="#fff7f8" stroke-width="14" stroke-linecap="round" fill="none"/>
</svg>
